<svg xmlns="http://www.w3.org/2000/svg" viewBox="0 0 98 24" role="img" aria-label="GitHub">
  <rect width="98" height="24" rx="6" fill="#111827"/>
  <circle cx="13" cy="12" r="5.5" fill="#ffffff"/>
  <path d="M13 6.8a5.2 5.2 0 0 0-1.65 10.13c.26.05.35-.11.35-.24v-.92c-1.42.31-1.72-.6-1.72-.6-.24-.58-.58-.73-.58-.73-.47-.32.03-.31.03-.31.52.04.8.54.8.54.47.8 1.23.57 1.53.43.05-.34.18-.57.33-.7-1.14-.13-2.34-.57-2.34-2.54 0-.56.2-1.02.53-1.38-.05-.13-.23-.66.05-1.37 0 0 .43-.14 1.4.53a4.85 4.85 0 0 1 2.55 0c.97-.67 1.4-.53 1.4-.53.28.71.1 1.24.05 1.37.33.36.53.82.53 1.38 0 1.98-1.2 2.41-2.35 2.54.19.17.35.49.35.98v1.45c0 .13.09.29.35.24A5.2 5.2 0 0 0 13 6.8Z" fill="#111827"/>
  <text x="26" y="16" font-size="11" font-family="Segoe UI, Arial, sans-serif" fill="#ffffff">GitHub</text>
</svg>
